<?xml version="1.0" standalone="no"?>
<!DOCTYPE svg PUBLIC "-//W3C//DTD SVG 20010904//EN"
 "http://www.w3.org/TR/2001/REC-SVG-20010904/DTD/svg10.dtd">
<svg version="1.0" xmlns="http://www.w3.org/2000/svg"
 width="500.000000pt" height="500.000000pt" viewBox="0 0 500.000000 500.000000"
 preserveAspectRatio="xMidYMid meet">
<metadata>
Created by potrace 1.16, written by Peter Selinger 2001-2019
</metadata>
<g transform="translate(0.000000,500.000000) scale(0.100000,-0.100000)"
fill="#FF0000" stroke="none">
<path d="M3840 4103 c-414 -414 -438 -441 -449 -486 -12 -48 -5 -197 8 -197 4
0 161 153 350 341 188 187 347 339 352 337 6 -2 9 -378 9 -1006 l0 -1003 22
-8 c21 -8 55 22 340 307 278 277 318 321 318 348 0 25 -20 50 -131 162 -72 73
-136 132 -143 132 -37 -1 -38 -15 -11 -146 15 -71 29 -138 31 -149 6 -29 -195
-239 -219 -229 -16 6 -17 73 -15 1020 3 868 1 1014 -11 1014 -8 0 -211 -197
-451 -437z"/>
<path d="M797 4523 c-4 -3 -7 -458 -7 -1010 0 -962 -1 -1003 -18 -1003 -22 0
-212 191 -212 212 0 8 11 70 25 138 30 149 31 157 4 165 -18 6 -44 -15 -155
-126 -112 -112 -134 -139 -134 -164 0 -26 39 -68 296 -323 254 -251 354 -342
379 -342 3 0 5 457 5 1015 l0 1015 26 6 c25 6 53 -20 359 -332 183 -186 335
-337 338 -334 3 3 9 39 13 80 11 124 19 113 -463 590 -234 231 -431 420 -438
420 -6 0 -15 -3 -18 -7z"/>
<path d="M2513 3453 c-50 -10 -53 -28 -53 -300 l0 -253 90 0 90 0 0 240 c0
275 -5 303 -60 314 -18 3 -35 5 -39 5 -3 -1 -16 -4 -28 -6z"/>
<path d="M3122 3379 c-29 -22 -65 -59 -80 -81 l-27 -41 -5 -241 c-4 -207 -8
-246 -23 -278 -11 -20 -25 -42 -33 -49 -11 -9 -10 -17 7 -50 11 -22 25 -64 32
-95 l13 -56 75 79 c110 115 109 111 109 519 0 184 -3 334 -7 333 -5 0 -32 -18
-61 -40z"/>
<path d="M1916 3395 c-3 -9 -6 -170 -6 -358 1 -249 4 -348 13 -363 7 -12 46
-58 88 -102 l77 -81 6 42 c4 23 17 66 31 94 l24 53 -23 27 c-12 16 -26 36 -29
46 -4 10 -7 120 -7 245 -1 221 -2 228 -26 277 -14 29 -45 66 -73 90 -59 48
-67 51 -75 30z"/>
<path d="M3688 3161 c-52 -42 -88 -83 -108 -121 -10 -18 -14 -85 -14 -255 -1
-210 -3 -233 -21 -268 -11 -21 -212 -230 -447 -465 -302 -302 -431 -439 -443
-467 -15 -33 -17 -69 -16 -213 3 -244 -2 -272 -53 -327 l-41 -44 -43 53 -43
54 -3 209 c-3 259 -7 271 -119 392 -150 161 -392 403 -502 501 -60 54 -124
113 -141 131 -50 54 -109 148 -140 224 -28 69 -29 74 -30 265 0 205 -3 220
-51 275 -23 27 -94 75 -110 75 -17 0 -19 -683 -2 -727 6 -15 203 -221 438
-458 378 -379 430 -436 446 -480 14 -40 19 -95 24 -265 5 -171 10 -223 24
-254 19 -43 143 -172 197 -205 67 -40 89 -31 223 98 104 100 109 115 111 361
2 249 6 267 94 364 105 116 408 420 532 533 63 58 137 131 163 162 64 74 114
178 134 276 14 70 14 95 3 207 -9 82 -11 176 -6 267 3 78 3 141 -1 141 -5 -1
-29 -18 -55 -39z"/>
<path d="M3588 1756 c-174 -173 -328 -333 -342 -355 -41 -64 -59 -159 -53
-274 7 -124 -5 -238 -34 -302 -23 -53 -178 -214 -253 -264 l-39 -26 -298 -3
c-200 -2 -312 1 -340 8 -34 9 -65 35 -159 128 -156 158 -160 167 -170 442 -5
122 -13 221 -21 245 -10 32 -81 109 -343 373 -182 182 -339 332 -348 332 -26
0 -35 -112 -13 -185 15 -53 27 -68 174 -214 87 -86 190 -186 228 -222 125
-117 166 -244 144 -437 -19 -159 7 -251 96 -338 228 -226 272 -265 325 -289
l56 -26 364 3 c337 3 366 4 403 23 23 11 112 91 205 185 209 209 200 190 209
480 6 172 11 223 24 255 12 26 98 120 254 277 131 130 245 252 255 270 24 45
23 229 -1 228 -3 -1 -149 -142 -323 -314z"/>
</g>
</svg>
